<?xml version="1.0" encoding="iso-8859-1"?>
<!-- Generator: Adobe Illustrator 19.0.0, SVG Export Plug-In . SVG Version: 6.00 Build 0)  -->
<svg version="1.1" id="Layer_1" xmlns="http://www.w3.org/2000/svg" xmlns:xlink="http://www.w3.org/1999/xlink" x="0px" y="0px"
	 viewBox="0 0 512 512" style="enable-background:new 0 0 512 512;" xml:space="preserve">
<path style="fill:#BAB2B2;" d="M92.74,156.549L74.871,72.985c-9.868-28.788,5.468-60.123,34.256-69.992l0,0
	c28.787-9.868,60.123,5.468,69.992,34.255l17.868,52.123"/>
<g>
	<path style="fill:#9F9999;" d="M419.262,156.549l17.868-83.564c9.868-28.787-5.468-60.123-34.255-69.992l0,0
		c-28.788-9.869-60.125,5.468-69.993,34.255l-17.868,52.123"/>
	<path style="fill:#9F9999;" d="M431.407,325.753H80.594V198.737c0-91.614,74.267-165.881,165.881-165.881h19.051
		c91.614,0,165.881,74.267,165.881,165.881V325.753z"/>
</g>
<path style="fill:#BAB2B2;" d="M256.001,325.753H80.594V198.737c0-91.614,74.267-165.881,165.881-165.881h9.525L256.001,325.753
	L256.001,325.753z"/>
<path style="fill:#F6F6F6;" d="M181.027,392.764v103.131c0,8.894-7.211,16.105-16.105,16.105h-54.563
	c-8.894,0-16.105-7.211-16.105-16.105V392.764"/>
<path style="fill:#DADADA;" d="M417.748,392.764v103.131c0,8.894-7.211,16.105-16.105,16.105h-54.562
	c-8.895,0-16.105-7.211-16.105-16.105V392.764"/>
<g>
	<circle style="fill:#0E1216;" cx="116.245" cy="320.026" r="38.06"/>
	<circle style="fill:#0E1216;" cx="395.754" cy="320.026" r="38.06"/>
</g>
<path style="fill:#9F9999;" d="M406.778,433.844H105.222c-49.804,0-90.179-40.375-90.179-90.179v-20.357
	c0-49.804,40.375-90.179,90.179-90.179h301.556c49.804,0,90.179,40.375,90.179,90.179v20.357
	C496.957,393.469,456.582,433.844,406.778,433.844z"/>
<path style="fill:#BAB2B2;" d="M256.001,433.844H105.222c-49.804,0-90.179-40.375-90.179-90.179v-20.357
	c0-49.804,40.375-90.179,90.179-90.179h150.777v200.715H256.001z"/>
<circle style="fill:#F19D9A;" cx="116.245" cy="320.026" r="38.06"/>
<circle style="fill:#D58C89;" cx="395.754" cy="320.026" r="38.06"/>
<g>
	<circle style="fill:#0E1216;" cx="362.201" cy="179.31" r="28.065"/>
	<circle style="fill:#0E1216;" cx="149.797" cy="179.31" r="28.065"/>
</g>
<g>
</g>
<g>
</g>
<g>
</g>
<g>
</g>
<g>
</g>
<g>
</g>
<g>
</g>
<g>
</g>
<g>
</g>
<g>
</g>
<g>
</g>
<g>
</g>
<g>
</g>
<g>
</g>
<g>
</g>
</svg>
